<svg width="34" height="26" viewBox="0 0 34 26" fill="none" xmlns="http://www.w3.org/2000/svg">
<path d="M23.6667 22.3333V25.6667H0.333374V22.3333C0.333374 22.3333 0.333374 15.6667 12 15.6667C23.6667 15.6667 23.6667 22.3333 23.6667 22.3333ZM17.8334 6.5C17.8334 5.34628 17.4913 4.21846 16.8503 3.25918C16.2093 2.29989 15.2983 1.55222 14.2324 1.1107C13.1665 0.669193 11.9936 0.553674 10.862 0.778754C9.73046 1.00383 8.69106 1.55941 7.87525 2.37521C7.05944 3.19102 6.50387 4.23042 6.27879 5.36197C6.05371 6.49353 6.16923 7.66642 6.61074 8.73232C7.05225 9.79822 7.79993 10.7093 8.75921 11.3502C9.7185 11.9912 10.8463 12.3333 12 12.3333C13.5471 12.3333 15.0309 11.7188 16.1248 10.6248C17.2188 9.53083 17.8334 8.0471 17.8334 6.5ZM23.5667 15.6667C24.5913 16.4596 25.4297 17.4674 26.0228 18.6192C26.616 19.771 26.9496 21.0388 27 22.3333V25.6667H33.6667V22.3333C33.6667 22.3333 33.6667 16.2833 23.5667 15.6667ZM22 0.666668C20.8529 0.66028 19.7309 1.00326 18.7834 1.65C19.7958 3.06456 20.3401 4.76048 20.3401 6.5C20.3401 8.23952 19.7958 9.93544 18.7834 11.35C19.7309 11.9967 20.8529 12.3397 22 12.3333C23.5471 12.3333 25.0309 11.7188 26.1248 10.6248C27.2188 9.53083 27.8334 8.0471 27.8334 6.5C27.8334 4.95291 27.2188 3.46917 26.1248 2.37521C25.0309 1.28125 23.5471 0.666668 22 0.666668Z" fill="white"/>
</svg>
