<svg width="33" height="35" viewBox="0 0 33 35" fill="none" xmlns="http://www.w3.org/2000/svg">
<path d="M1.95761 25.675C2.70758 22.8347 4.27523 20.2772 6.46595 18.32V11.1667C6.46571 9.18868 7.05207 7.25505 8.15087 5.61034C9.24967 3.96563 10.8115 2.68372 12.639 1.92674C14.4664 1.16977 16.4772 0.971734 18.4172 1.35769C20.3571 1.74364 22.1391 2.69624 23.5376 4.095L1.95761 25.675ZM26.4509 10.61C26.4609 10.7933 26.4659 10.98 26.4659 11.1667V18.32C28.0408 19.7255 29.3004 21.4482 30.1621 23.375C31.0239 25.3019 31.4682 27.3892 31.4659 29.5H7.56095L26.4493 10.61H26.4509ZM21.1809 31.1667C20.8359 32.1414 20.1973 32.9853 19.3529 33.5821C18.5085 34.1789 17.5 34.4994 16.4659 34.4994C15.4319 34.4994 14.4234 34.1789 13.579 33.5821C12.7346 32.9853 12.096 32.1414 11.7509 31.1667H21.1809ZM31.6193 0.678337C31.9317 0.990883 32.1073 1.41473 32.1073 1.85667C32.1073 2.29861 31.9317 2.72246 31.6193 3.035L3.33595 31.3183C3.18231 31.4776 2.9985 31.6047 2.79522 31.6922C2.59194 31.7797 2.37328 31.8258 2.15198 31.8279C1.93069 31.83 1.71119 31.788 1.50631 31.7043C1.30142 31.6207 1.11525 31.497 0.958655 31.3407C0.802058 31.1843 0.678172 30.9983 0.594225 30.7935C0.510279 30.5888 0.467954 30.3693 0.469719 30.148C0.471483 29.9267 0.517303 29.708 0.604505 29.5046C0.691706 29.3012 0.818543 29.1172 0.977614 28.9633L29.2609 0.680004C29.4157 0.525043 29.5996 0.402111 29.8019 0.318237C30.0042 0.234364 30.2211 0.191193 30.4401 0.191193C30.6591 0.191193 30.876 0.234364 31.0783 0.318237C31.2807 0.402111 31.4645 0.525043 31.6193 0.680004V0.678337Z" fill="#89989D"/>
</svg>
