<svg width="24" height="33" viewBox="0 0 24 33" fill="none" xmlns="http://www.w3.org/2000/svg">
<path d="M14.586 0.5H4C2.93913 0.5 1.92172 0.921427 1.17157 1.67157C0.421427 2.42172 0 3.43913 0 4.5V28.5C0 29.5609 0.421427 30.5783 1.17157 31.3284C1.92172 32.0786 2.93913 32.5 4 32.5H20C21.0609 32.5 22.0783 32.0786 22.8284 31.3284C23.5786 30.5783 24 29.5609 24 28.5V9.914C23.9999 9.38361 23.7891 8.87499 23.414 8.5L16 1.086C15.625 0.710901 15.1164 0.500113 14.586 0.5V0.5ZM15 7.5V3.5L21 9.5H17C16.4696 9.5 15.9609 9.28929 15.5858 8.91421C15.2107 8.53914 15 8.03043 15 7.5ZM17.708 16.208L11.708 22.208C11.6151 22.3011 11.5048 22.375 11.3833 22.4254C11.2618 22.4758 11.1315 22.5018 11 22.5018C10.8685 22.5018 10.7382 22.4758 10.6167 22.4254C10.4952 22.375 10.3849 22.3011 10.292 22.208L7.292 19.208C7.19902 19.115 7.12527 19.0046 7.07495 18.8832C7.02463 18.7617 6.99874 18.6315 6.99874 18.5C6.99874 18.3685 7.02463 18.2383 7.07495 18.1168C7.12527 17.9954 7.19902 17.885 7.292 17.792C7.47977 17.6042 7.73445 17.4987 8 17.4987C8.13149 17.4987 8.26169 17.5246 8.38317 17.575C8.50465 17.6253 8.61502 17.699 8.708 17.792L11 20.086L16.292 14.792C16.4798 14.6042 16.7344 14.4987 17 14.4987C17.2656 14.4987 17.5202 14.6042 17.708 14.792C17.8958 14.9798 18.0013 15.2344 18.0013 15.5C18.0013 15.7656 17.8958 16.0202 17.708 16.208Z" fill="#89989D"/>
</svg>
