<svg width="57" height="57" viewBox="0 0 57 57" fill="none" xmlns="http://www.w3.org/2000/svg">
<rect width="57" height="57" rx="28.5" fill="#5865F2"/>
<g style="mix-blend-mode:color-dodge">
<path d="M22.7498 38.9823C21.9365 40.3452 21.0653 41.6612 20.1394 42.9257C13.5191 42.7093 11.0073 37.7736 11.0073 37.7736C11.1014 30.7804 12.5768 23.903 15.3222 17.6601C17.7354 15.4916 20.6759 14.2385 23.7366 14.0743L24.6336 16.4546C25.9149 16.2502 27.2065 16.1435 28.5 16.1351C29.7992 16.14 31.0968 16.2433 32.3842 16.4443L33.2813 14.064C36.3449 14.2371 39.2857 15.5011 41.6957 17.6807C44.4322 23.919 45.9014 30.789 45.9926 37.7736C45.9926 37.7736 43.4809 42.7093 36.8606 42.9257C35.9486 41.6673 35.0924 40.357 34.295 38.9998L22.7498 38.9823ZM40.09 36.0117C36.6453 38.0158 33.3118 40.0199 28.5 40.0199C23.6881 40.0199 20.3547 38.0158 16.91 36.0117" fill="white"/>
<path d="M40.09 36.0117C36.6453 38.0158 33.3118 40.0199 28.5 40.0199C23.6881 40.0199 20.3547 38.0158 16.91 36.0117M22.7498 38.9823C21.9365 40.3452 21.0653 41.6612 20.1394 42.9257C13.5191 42.7093 11.0073 37.7736 11.0073 37.7736C11.1014 30.7804 12.5768 23.903 15.3222 17.6601C17.7354 15.4916 20.6759 14.2385 23.7366 14.0743L24.6336 16.4546C25.9149 16.2502 27.2065 16.1435 28.5 16.1351C29.7992 16.14 31.0968 16.2433 32.3842 16.4443L33.2813 14.064C36.3449 14.2371 39.2857 15.5011 41.6957 17.6807C44.4322 23.919 45.9014 30.789 45.9926 37.7736C45.9926 37.7736 43.4808 42.7093 36.8606 42.9257C35.9486 41.6673 35.0924 40.357 34.295 38.9998L22.7498 38.9823Z" stroke="#F8F8F8" stroke-linecap="round" stroke-linejoin="round"/>
<path d="M22.9804 34.2497C24.6401 34.2497 25.9855 32.7042 25.9855 30.7978C25.9855 28.8914 24.6401 27.3459 22.9804 27.3459C21.3207 27.3459 19.9752 28.8914 19.9752 30.7978C19.9752 32.7042 21.3207 34.2497 22.9804 34.2497Z" fill="black" stroke="#F8F8F8" stroke-linecap="round" stroke-linejoin="round"/>
<path d="M34.0196 34.2497C35.6792 34.2497 37.0247 32.7042 37.0247 30.7978C37.0247 28.8914 35.6792 27.3459 34.0196 27.3459C32.3599 27.3459 31.0144 28.8914 31.0144 30.7978C31.0144 32.7042 32.3599 34.2497 34.0196 34.2497Z" fill="black" stroke="#F8F8F8" stroke-linecap="round" stroke-linejoin="round"/>
</g>
</svg>
