<svg width="52" height="37" viewBox="0 0 52 37" fill="none" xmlns="http://www.w3.org/2000/svg">
<g style="mix-blend-mode:color-dodge">
<path d="M17.854 31.4282C16.7018 33.109 15.4676 34.7322 14.1558 36.2917C4.77708 36.0248 1.21875 29.9375 1.21875 29.9375C1.35205 21.3125 3.44218 12.8303 7.33146 5.13083C10.7502 2.45628 14.916 0.910787 19.2519 0.708326L20.5227 3.64395C22.3378 3.39197 24.1675 3.26036 26 3.24999C27.8406 3.25605 29.6788 3.38341 31.5027 3.63124L32.7735 0.695618C37.1137 0.909042 41.2799 2.46802 44.694 5.15624C48.5707 12.8501 50.652 21.3231 50.7812 29.9375C50.7812 29.9375 47.2229 36.0248 37.8442 36.2917C36.5523 34.7396 35.3392 33.1236 34.2096 31.4498L17.854 31.4282ZM42.4192 27.7644C37.5392 30.2361 32.8168 32.7079 26 32.7079C19.1833 32.7079 14.4608 30.2361 9.58083 27.7644" fill="white"/>
<path d="M42.4192 27.7644C37.5392 30.2361 32.8168 32.7079 26 32.7079C19.1833 32.7079 14.4608 30.2361 9.58083 27.7644M17.854 31.4282C16.7018 33.109 15.4676 34.7321 14.1558 36.2917C4.77708 36.0248 1.21875 29.9375 1.21875 29.9375C1.35205 21.3125 3.44218 12.8303 7.33146 5.13083C10.7502 2.45628 14.916 0.910787 19.2519 0.708326L20.5227 3.64395C22.3378 3.39197 24.1675 3.26036 26 3.24999C27.8406 3.25605 29.6788 3.38341 31.5027 3.63124L32.7735 0.695618C37.1137 0.909042 41.2799 2.46802 44.694 5.15624C48.5707 12.8501 50.652 21.3231 50.7813 29.9375C50.7813 29.9375 47.2229 36.0248 37.8442 36.2917C36.5523 34.7396 35.3392 33.1236 34.2096 31.4498L17.854 31.4282Z" stroke="#F8F8F8" stroke-linecap="round" stroke-linejoin="round"/>
<path d="M18.1806 25.5912C20.5318 25.5912 22.4379 23.6852 22.4379 21.334C22.4379 18.9827 20.5318 17.0767 18.1806 17.0767C15.8293 17.0767 13.9233 18.9827 13.9233 21.334C13.9233 23.6852 15.8293 25.5912 18.1806 25.5912Z" fill="black" stroke="#F8F8F8" stroke-linecap="round" stroke-linejoin="round"/>
<path d="M33.8194 25.5912C36.1707 25.5912 38.0767 23.6852 38.0767 21.334C38.0767 18.9827 36.1707 17.0767 33.8194 17.0767C31.4682 17.0767 29.5621 18.9827 29.5621 21.334C29.5621 23.6852 31.4682 25.5912 33.8194 25.5912Z" fill="black" stroke="#F8F8F8" stroke-linecap="round" stroke-linejoin="round"/>
</g>
</svg>
