<svg width="17" height="17" viewBox="0 0 17 17" fill="none" xmlns="http://www.w3.org/2000/svg">
<path d="M8.5 0C3.80868 0 0 3.80868 0 8.5C0 13.1913 3.80868 17 8.5 17C13.1828 17 16.9849 13.2049 16.9986 8.52516C16.9995 8.5168 17 8.5084 17 8.5C17 8.49245 16.9997 8.48491 16.999 8.47739C16.9867 3.79644 13.1838 0 8.5 0ZM8.5 0.51C9.36105 0.51 10.1895 0.6477 10.9664 0.8993C11.0221 0.95506 11.0758 1.01456 11.1257 1.08018C11.5858 0.88519 11.6935 1.80064 11.2312 1.41576C10.6677 1.37394 10.632 0.61744 10.1708 0.97716C10.4135 1.12166 9.85286 1.56706 10.4739 1.52167C10.695 1.02187 10.5755 1.89159 11.0869 1.68657C10.77 1.78483 11.0194 1.93885 11.2348 2.00277C11.9561 2.47775 11.0291 2.21187 10.7156 2.36266C10.8652 2.78188 10.9373 3.22796 11.4053 3.3439C11.082 3.64429 11.2171 4.22739 10.7797 4.42595L10.5927 4.59867C10.5641 4.88427 9.877 5.56427 10.368 5.57277C10.0801 5.6474 10.3629 6.00525 10.3836 6.26348C10.1317 6.74407 10.2178 7.50822 10.7867 7.70542C11.119 8.19944 11.7128 8.91514 12.4058 8.64416C13.0101 8.95832 13.65 7.81524 14.0041 8.57871C14.643 8.55032 14.5624 9.08378 14.4549 9.59565C14.8379 10.1538 14.9916 10.9871 14.5756 11.5852C14.1879 12.418 14.4279 13.4021 13.9397 14.2086C13.99 14.2178 14.0398 14.2162 14.0891 14.2096C12.6485 15.6196 10.6772 16.49 8.5 16.49C7.05697 16.4921 5.64052 16.1018 4.40232 15.3607C4.38192 15.1657 4.67432 15 4.62672 14.8325C4.80046 14.8226 5.35262 14.178 5.23141 13.7153C5.77966 13.4594 6.49349 13.4365 6.40016 12.5897C6.16216 11.8128 7.18352 11.5167 7.05636 10.7804C6.76974 10.1776 5.92637 10.0035 5.32015 9.82906C4.94377 9.4826 4.3214 9.53547 4.20223 8.8808C4.12539 8.11767 3.07734 8.34785 2.86314 7.66819C2.98061 7.05993 2.82931 7.4613 2.45905 7.26869C2.32475 7.23571 2.40805 7.44617 2.04255 7.34519C2.16104 7.03205 1.81747 6.94229 1.76885 7.08186C1.45418 6.95096 0.99008 7.94291 0.81311 7.29946C1.00283 6.83162 0.80189 6.48516 0.86156 6.14822C0.87958 6.08957 0.90015 6.03194 0.91936 5.97397C1.02986 5.79598 1.06267 5.67409 1.0489 5.6134C1.20343 5.21424 1.3889 4.83106 1.60276 4.46607C1.65189 4.55855 1.60072 4.77989 1.51266 5.04781C1.58542 5.18211 1.96316 4.53458 1.64016 5.26235C1.94684 4.82375 1.69031 5.47995 1.86932 5.4842C2.08862 5.90767 1.2393 4.86965 1.14223 5.54982C1.50926 5.47213 1.34283 6.0282 1.76715 5.9228C1.41321 6.40118 2.25726 6.13258 2.53555 6.22387C2.91414 5.97635 2.15645 6.16369 2.17719 5.86959C1.71547 5.80176 2.09695 5.58688 2.04935 5.47417C1.80489 5.34939 2.10477 4.64933 1.77939 4.74334C1.97829 3.90983 2.80143 3.47565 3.34356 2.88235C3.8726 2.39581 4.24881 2.52552 4.86387 2.13503C4.59068 2.05598 4.61584 1.89448 4.99103 1.77837C5.69551 1.51997 4.80454 1.91879 5.0983 2.02912C5.79343 2.26202 5.49185 1.70051 5.74022 1.45537C5.63754 1.36782 5.72475 1.12574 5.70231 1.01371C6.05311 0.883175 6.41271 0.777625 6.77841 0.69785C6.77212 0.85646 6.89911 0.99671 7.15734 0.88026C7.42356 0.69666 7.72854 0.59687 8.03879 0.52394C8.19236 0.514925 8.34616 0.510276 8.5 0.51ZM12.502 2.4123C12.5165 2.4106 12.5312 2.41118 12.5455 2.414C12.7777 2.46194 12.7024 3.13259 13.0492 2.9801C12.6752 2.52229 12.9402 2.60304 13.3015 2.8645C13.8732 3.0515 13.0837 3.05592 13.4691 3.26026C13.8924 3.9389 13.5573 2.60032 14.0037 3.20756C14.2761 3.65806 14.569 3.54824 14.8498 3.64956C14.968 3.80436 15.0805 3.96341 15.1871 4.12641C14.9755 4.10261 14.2764 3.6244 14.4318 4.04991C14.3658 4.1735 13.5434 3.70821 13.4152 3.4136C13.0482 2.82659 12.1632 3.46936 11.6334 3.3456C12.1649 3.38504 11.9976 2.59896 12.3267 2.49781C12.3981 2.44324 12.4552 2.41723 12.502 2.41213V2.4123ZM10.0353 4.33806C9.63305 4.38549 10.1063 4.58507 10.4297 4.55447L10.4268 4.34758C10.308 4.37461 10.1748 4.40181 10.0353 4.33806ZM2.84546 6.11898C2.83781 6.11694 2.82999 6.11898 2.82234 6.12595C2.65574 6.23424 2.98486 6.93396 2.71728 7.26546C3.06476 7.12674 2.96072 6.15026 2.84546 6.11898ZM0.61727 7.1978C0.646 7.49054 0.69173 7.80249 0.83997 7.90891C1.07678 7.52947 1.04363 8.34819 0.96781 8.61356C0.67456 9.24596 0.80376 10.0242 1.09905 10.6396C1.27738 11.3353 1.78721 11.8427 2.1947 12.3981C2.43797 13.0492 2.6724 13.7341 3.03841 14.3315C1.48291 12.8741 0.51 10.8021 0.51 8.5C0.51 8.0563 0.54791 7.62161 0.6171 7.1978H0.61727Z" fill="#F8F8F8"/>
</svg>
