<svg width="24" height="26" viewBox="0 0 24 26" fill="none" xmlns="http://www.w3.org/2000/svg">
<path d="M22.6667 15.6667H16.9333L17.9067 10.3333H22.6667C23.0203 10.3333 23.3594 10.1929 23.6095 9.94281C23.8595 9.69276 24 9.35362 24 9C24 8.64638 23.8595 8.30724 23.6095 8.05719C23.3594 7.80714 23.0203 7.66667 22.6667 7.66667H18.3867L19.3067 2.58667C19.343 2.40841 19.3425 2.22459 19.3052 2.04654C19.2678 1.86848 19.1944 1.69995 19.0895 1.55132C18.9846 1.40269 18.8504 1.2771 18.6951 1.18229C18.5398 1.08747 18.3668 1.02544 18.1867 0.999999C18.0075 0.957329 17.8215 0.952221 17.6403 0.984996C17.4592 1.01777 17.2867 1.08772 17.1339 1.19043C16.9811 1.29315 16.8512 1.4264 16.7524 1.5818C16.6536 1.73719 16.5881 1.91136 16.56 2.09333L15.56 7.66667H10.3867L11.3067 2.58667C11.343 2.40841 11.3425 2.22459 11.3052 2.04654C11.2678 1.86848 11.1944 1.69995 11.0895 1.55132C10.9846 1.40269 10.8504 1.2771 10.6951 1.18229C10.5398 1.08747 10.3668 1.02544 10.1867 0.999999C10.0075 0.957329 9.82154 0.952221 9.64035 0.984996C9.45916 1.01777 9.28672 1.08772 9.1339 1.19043C8.98108 1.29315 8.85119 1.4264 8.75242 1.5818C8.65365 1.73719 8.58813 1.91136 8.56 2.09333L7.56 7.66667H1.33333C0.979711 7.66667 0.640573 7.80714 0.390524 8.05719C0.140476 8.30724 0 8.64638 0 9C0 9.35362 0.140476 9.69276 0.390524 9.94281C0.640573 10.1929 0.979711 10.3333 1.33333 10.3333H7.06667L6.09333 15.6667H1.33333C0.979711 15.6667 0.640573 15.8071 0.390524 16.0572C0.140476 16.3072 0 16.6464 0 17C0 17.3536 0.140476 17.6928 0.390524 17.9428C0.640573 18.1929 0.979711 18.3333 1.33333 18.3333H5.61333L4.69333 23.4133C4.65698 23.5916 4.65749 23.7754 4.69484 23.9535C4.73218 24.1315 4.80557 24.3 4.91049 24.4487C5.0154 24.5973 5.14962 24.7229 5.30489 24.8177C5.46016 24.9125 5.63319 24.9746 5.81333 25C5.99245 25.0427 6.17847 25.0478 6.35965 25.015C6.54084 24.9822 6.71328 24.9123 6.8661 24.8096C7.01892 24.7068 7.14881 24.5736 7.24758 24.4182C7.34635 24.2628 7.41187 24.0886 7.44 23.9067L8.44 18.3333H13.6133L12.6933 23.4133C12.657 23.5916 12.6575 23.7754 12.6948 23.9535C12.7322 24.1315 12.8056 24.3 12.9105 24.4487C13.0154 24.5973 13.1496 24.7229 13.3049 24.8177C13.4602 24.9125 13.6332 24.9746 13.8133 25C13.9925 25.0427 14.1785 25.0478 14.3597 25.015C14.5408 24.9822 14.7133 24.9123 14.8661 24.8096C15.0189 24.7068 15.1488 24.5736 15.2476 24.4182C15.3464 24.2628 15.4119 24.0886 15.44 23.9067L16.44 18.3333H22.6667C23.0203 18.3333 23.3594 18.1929 23.6095 17.9428C23.8595 17.6928 24 17.3536 24 17C24 16.6464 23.8595 16.3072 23.6095 16.0572C23.3594 15.8071 23.0203 15.6667 22.6667 15.6667ZM8.93333 15.6667L9.90667 10.3333H15.0667L14.0933 15.6667H8.93333Z" fill="#89989D"/>
</svg>
