<svg width="25" height="25" viewBox="0 0 25 25" fill="none" xmlns="http://www.w3.org/2000/svg">
<path d="M12.6575 1.57214C7.65747 1.57214 3.65747 5.57214 3.65747 10.5721V17.5721C3.65747 18.3678 3.97354 19.1309 4.53615 19.6935C5.09876 20.2561 5.86182 20.5721 6.65747 20.5721H9.65747V12.5721H5.65747V10.5721C5.65747 8.71563 6.39497 6.93515 7.70772 5.6224C9.02048 4.30964 10.801 3.57214 12.6575 3.57214C14.514 3.57214 16.2945 4.30964 17.6072 5.6224C18.92 6.93515 19.6575 8.71563 19.6575 10.5721V12.5721H15.6575V20.5721H18.6575C19.4531 20.5721 20.2162 20.2561 20.7788 19.6935C21.3414 19.1309 21.6575 18.3678 21.6575 17.5721V10.5721C21.6575 5.57214 17.6275 1.57214 12.6575 1.57214Z" fill="#96989D"/>
</svg>
