<svg width="34" height="34" viewBox="0 0 34 34" fill="none" xmlns="http://www.w3.org/2000/svg">
<path d="M22.1167 15.75L20.6167 17.2833C19.4167 18.4833 18.6667 19.5 18.6667 22H15.3334V21.1667C15.3334 19.3167 16.0834 17.65 17.2834 16.45L19.35 14.35C19.9667 13.75 20.3334 12.9167 20.3334 12C20.3334 10.15 18.8334 8.66666 17 8.66666C16.116 8.66666 15.2681 9.01785 14.643 9.64297C14.0179 10.2681 13.6667 11.1159 13.6667 12H10.3334C10.3334 10.2319 11.0358 8.53619 12.286 7.28595C13.5362 6.03571 15.2319 5.33333 17 5.33333C18.7682 5.33333 20.4638 6.03571 21.7141 7.28595C22.9643 8.53619 23.6667 10.2319 23.6667 12C23.6667 13.4667 23.0667 14.7833 22.1167 15.75ZM18.6667 28.6667H15.3334V25.3333H18.6667V28.6667ZM17 0.333328C14.8113 0.333328 12.6441 0.764424 10.622 1.602C8.59989 2.43958 6.76257 3.66724 5.21493 5.21488C2.08932 8.34049 0.333374 12.5797 0.333374 17C0.333374 21.4203 2.08932 25.6595 5.21493 28.7851C6.76257 30.3328 8.59989 31.5604 10.622 32.398C12.6441 33.2356 14.8113 33.6667 17 33.6667C21.4203 33.6667 25.6595 31.9107 28.7852 28.7851C31.9108 25.6595 33.6667 21.4203 33.6667 17C33.6667 7.78333 26.1667 0.333328 17 0.333328Z" fill="#89989D"/>
</svg>
