<svg width="26" height="26" viewBox="0 0 26 26" fill="none" xmlns="http://www.w3.org/2000/svg">
<path d="M24.5 0C24.3813 0 24.2594 0.0218751 24.1375 0.0718751L6.125 7.30937H1C0.725 7.30937 0.5 7.54063 0.5 7.82812V17.1719C0.5 17.4594 0.725 17.6906 1 17.6906H4.175C4.05938 18.0531 4 18.4375 4 18.8281C4 20.8875 5.68125 22.5625 7.75 22.5625C9.48125 22.5625 10.9406 21.3875 11.3719 19.8L24.1406 24.9312C24.2625 24.9781 24.3844 25.0031 24.5031 25.0031C25.0312 25.0031 25.5031 24.5594 25.5031 23.9656V1.0375C25.5 0.44375 25.0312 0 24.5 0ZM7.75 20.3219C6.92188 20.3219 6.25 19.6531 6.25 18.8281C6.25 18.4781 6.37187 18.1437 6.59375 17.8781L9.24687 18.9438C9.18437 19.7125 8.5375 20.3219 7.75 20.3219Z" fill="#89989D"/>
</svg>
