<svg width="30" height="30" viewBox="0 0 30 30" fill="none" xmlns="http://www.w3.org/2000/svg">
<path d="M26.6667 20H20C20 21.3261 19.4732 22.5979 18.5355 23.5355C17.5979 24.4732 16.3261 25 15 25C13.6739 25 12.4021 24.4732 11.4645 23.5355C10.5268 22.5979 10 21.3261 10 20H3.33333V3.33333H26.6667V20ZM26.6667 0H3.33333C1.48333 0 0 1.5 0 3.33333V26.6667C0 27.5507 0.351189 28.3986 0.976311 29.0237C1.60143 29.6488 2.44928 30 3.33333 30H26.6667C27.5507 30 28.3986 29.6488 29.0237 29.0237C29.6488 28.3986 30 27.5507 30 26.6667V3.33333C30 2.44928 29.6488 1.60143 29.0237 0.976311C28.3986 0.351189 27.5507 0 26.6667 0Z" fill="#89989D"/>
</svg>
