<svg width="20" height="29" viewBox="0 0 20 29" fill="none" xmlns="http://www.w3.org/2000/svg">
<path d="M16.6667 11.8333V8.02889C16.7025 6.10168 16.0211 4.23781 14.7717 2.84514C13.5223 1.45248 11.8066 0.644415 10 0.597778C8.19341 0.644415 6.4777 1.45248 5.2283 2.84514C3.97889 4.23781 3.29754 6.10168 3.33333 8.02889V11.8333H0.833328V26.9444C0.833328 27.4159 1.00892 27.8681 1.32148 28.2015C1.63404 28.5349 2.05797 28.7222 2.5 28.7222H17.5C17.942 28.7222 18.3659 28.5349 18.6785 28.2015C18.9911 27.8681 19.1667 27.4159 19.1667 26.9444V11.8333H16.6667ZM10.8333 20.9267V23.3889H9.16666V20.8467C8.76095 20.624 8.43881 20.26 8.2537 19.8152C8.06859 19.3704 8.03164 18.8714 8.14898 18.4011C8.26631 17.9308 8.53089 17.5174 8.89879 17.2295C9.26669 16.9417 9.71581 16.7967 10.1716 16.8185C10.6274 16.8404 11.0625 17.0279 11.4047 17.3498C11.7469 17.6718 11.9756 18.1088 12.0528 18.5885C12.1301 19.0681 12.0513 19.5615 11.8295 19.9868C11.6076 20.4121 11.2562 20.7438 10.8333 20.9267V20.9267ZM15 11.8333H5V8.02889C4.96407 6.5731 5.46979 5.16132 6.40667 4.10202C7.34355 3.04273 8.63542 2.42203 10 2.37556C11.3646 2.42203 12.6564 3.04273 13.5933 4.10202C14.5302 5.16132 15.0359 6.5731 15 8.02889V11.8333Z" fill="#89989D"/>
</svg>
