<svg width="25" height="25" viewBox="0 0 25 25" fill="none" xmlns="http://www.w3.org/2000/svg">
<path d="M19.6575 11.5721C19.6575 12.7621 19.3175 13.8721 18.7575 14.8521L17.5275 13.6221C17.7975 13.0021 17.9575 12.3121 17.9575 11.5721H19.6575ZM15.6575 11.7321L9.65747 5.75214V5.57214C9.65747 4.77649 9.97354 4.01343 10.5361 3.45082C11.0988 2.88821 11.8618 2.57214 12.6575 2.57214C13.4531 2.57214 14.2162 2.88821 14.7788 3.45082C15.3414 4.01343 15.6575 4.77649 15.6575 5.57214V11.5721V11.7321ZM4.92747 3.57214L21.6575 20.3021L20.3875 21.5721L16.1975 17.3821C15.4275 17.8421 14.5675 18.1521 13.6575 18.2921V21.5721H11.6575V18.2921C8.37747 17.8021 5.65747 14.9821 5.65747 11.5721H7.35747C7.35747 14.5721 9.89747 16.6721 12.6575 16.6721C13.4675 16.6721 14.2575 16.4821 14.9675 16.1521L13.3075 14.4921L12.6575 14.5721C11.8618 14.5721 11.0988 14.2561 10.5361 13.6935C9.97354 13.1309 9.65747 12.3678 9.65747 11.5721V10.8521L3.65747 4.84214L4.92747 3.57214Z" fill="#96989D"/>
</svg>
