<svg width="38" height="38" viewBox="0 0 38 38" fill="none" xmlns="http://www.w3.org/2000/svg">
<path d="M19 16.9375C17.8563 16.9375 16.9375 17.8563 16.9375 19C16.9375 20.1437 17.8563 21.0625 19 21.0625C20.1437 21.0625 21.0625 20.1437 21.0625 19C21.0625 17.8563 20.1437 16.9375 19 16.9375ZM19 0.25C8.65 0.25 0.25 8.65 0.25 19C0.25 29.35 8.65 37.75 19 37.75C29.35 37.75 37.75 29.35 37.75 19C37.75 8.65 29.35 0.25 19 0.25ZM23.1062 23.1062L7.75 30.25L14.8938 14.8938L30.25 7.75L23.1062 23.1062Z" fill="#3BA55D"/>
</svg>
