<svg width="25" height="25" viewBox="0 0 25 25" fill="none" xmlns="http://www.w3.org/2000/svg">
<path d="M12.6575 16.0721C11.7292 16.0721 10.839 15.7034 10.1826 15.047C9.52624 14.3906 9.15749 13.5004 9.15749 12.5721C9.15749 11.6439 9.52624 10.7536 10.1826 10.0973C10.839 9.44089 11.7292 9.07214 12.6575 9.07214C13.5858 9.07214 14.476 9.44089 15.1324 10.0973C15.7887 10.7536 16.1575 11.6439 16.1575 12.5721C16.1575 13.5004 15.7887 14.3906 15.1324 15.047C14.476 15.7034 13.5858 16.0721 12.6575 16.0721V16.0721ZM20.0875 13.5421C20.1275 13.2221 20.1575 12.9021 20.1575 12.5721C20.1575 12.2421 20.1275 11.9121 20.0875 11.5721L22.1975 9.94214C22.3875 9.79214 22.4375 9.52214 22.3175 9.30214L20.3175 5.84214C20.1975 5.62214 19.9275 5.53214 19.7075 5.62214L17.2175 6.62214C16.6975 6.23214 16.1575 5.89214 15.5275 5.64214L15.1575 2.99214C15.1175 2.75214 14.9075 2.57214 14.6575 2.57214H10.6575C10.4075 2.57214 10.1975 2.75214 10.1575 2.99214L9.78749 5.64214C9.15749 5.89214 8.61749 6.23214 8.09749 6.62214L5.60749 5.62214C5.38749 5.53214 5.11749 5.62214 4.99749 5.84214L2.99749 9.30214C2.86749 9.52214 2.92749 9.79214 3.11749 9.94214L5.22749 11.5721C5.18749 11.9121 5.15749 12.2421 5.15749 12.5721C5.15749 12.9021 5.18749 13.2221 5.22749 13.5421L3.11749 15.2021C2.92749 15.3521 2.86749 15.6221 2.99749 15.8421L4.99749 19.3021C5.11749 19.5221 5.38749 19.6021 5.60749 19.5221L8.09749 18.5121C8.61749 18.9121 9.15749 19.2521 9.78749 19.5021L10.1575 22.1521C10.1975 22.3921 10.4075 22.5721 10.6575 22.5721H14.6575C14.9075 22.5721 15.1175 22.3921 15.1575 22.1521L15.5275 19.5021C16.1575 19.2421 16.6975 18.9121 17.2175 18.5121L19.7075 19.5221C19.9275 19.6021 20.1975 19.5221 20.3175 19.3021L22.3175 15.8421C22.4375 15.6221 22.3875 15.3521 22.1975 15.2021L20.0875 13.5421Z" fill="#96989D"/>
</svg>
