<svg width="37" height="37" viewBox="0 0 37 37" fill="none" xmlns="http://www.w3.org/2000/svg">
<rect x="35.321" width="35.3332" height="35.3332" rx="17.6666" transform="rotate(88.5 35.321 0)" fill="#2F3136"/>
<path d="M22.4683 8.46064C21.7313 7.75894 20.8905 7.17496 19.9756 6.72925C21.0092 8.58974 21.4222 10.7315 21.1546 12.8429C20.887 14.9543 19.9527 16.9253 18.4877 18.4691C17.0227 20.013 15.1033 21.0491 13.0088 21.4268C10.9142 21.8046 8.75382 21.5042 6.84178 20.5694C7.54176 21.8294 8.50584 22.9231 9.66797 23.7758C10.8301 24.6284 12.1628 25.2197 13.5748 25.5092C14.9868 25.7988 16.4447 25.7796 17.8486 25.4531C19.2525 25.1266 20.5692 24.5005 21.7085 23.6176C22.8479 22.7348 23.7829 21.6161 24.4495 20.3381C25.1162 19.0602 25.4987 17.6533 25.5709 16.2137C25.643 14.7742 25.4031 13.336 24.8676 11.9978C24.3321 10.6596 23.5137 9.45301 22.4683 8.46064Z" fill="#FAA81A"/>
</svg>
