<svg width="30" height="22" viewBox="0 0 30 22" fill="none" xmlns="http://www.w3.org/2000/svg">
<path d="M19 13.6667C15.44 13.6667 8.33334 15.44 8.33334 19V21.6667L29.6667 21.6667V19C29.6667 15.44 22.56 13.6667 19 13.6667ZM7 8.33333L7 4.33333L4.33334 4.33333L4.33334 8.33333H0.333336L0.333336 11H4.33334L4.33334 15L7 15L7 11H11V8.33333H7ZM19 11C20.4145 11 21.771 10.4381 22.7712 9.4379C23.7714 8.43771 24.3333 7.08116 24.3333 5.66667C24.3333 4.25218 23.7714 2.89562 22.7712 1.89543C21.771 0.895237 20.4145 0.333334 19 0.333334C17.5855 0.333334 16.229 0.895237 15.2288 1.89543C14.2286 2.89562 13.6667 4.25218 13.6667 5.66667C13.6667 7.08116 14.2286 8.43771 15.2288 9.4379C16.229 10.4381 17.5855 11 19 11Z" fill="#89989D"/>
</svg>
